<svg version="1.2" xmlns="http://www.w3.org/2000/svg" viewBox="0 0 87 104" width="87" height="104">
	<title>Logo_def_Diplomechain[35]</title>
	<style>
		.s0 { fill: #1d1d1b } 
	</style>
	<g id="Livello 1">
		<g id="&lt;Group&gt;">
			<path id="&lt;Path&gt;" class="s0" d="m56.9 37.4c-2.8 0-5.1 2.3-5.1 5.1v14.6h-0.1v4.8c0 11.3-9.2 20.5-20.5 20.6-11.3-0.1-20.5-9.3-20.5-20.6v-3.2q0 0 0 0v-26.5q0 0 0.1 0.1-0.1-0.7-0.1-1.4c0-11.3 9.2-20.5 20.6-20.5h0.3c0 0 0.5 0 0.5 0h0.5c2.7 0 4.9-2.2 4.9-4.8 0-3-2.4-5.5-5.4-5.5h-0.8c-17 0-30.8 13.8-30.9 30.8q0 0 0 0 0 0.1 0 0.1 0 0.2 0 0.5v19.8q0 0.1 0 0.3v10.3c0 17 13.8 30.8 30.7 30.9q0.1 0 0.1 0 0 0 0.1 0c16.9-0.1 30.7-13.9 30.7-30.9v-0.2q0 0 0 0v-19.2c0-2.8-2.3-5.1-5.1-5.1z"/>
			<path id="&lt;Path&gt;" class="s0" d="m86.7 72.2c0-0.3-0.1-0.7-0.1-1q0 0 0 0v-18.2q0-0.1 0-0.3v-10.3c0-17-13.8-30.8-30.7-30.9q-0.1 0-0.1 0 0 0-0.1 0c-16.9 0.1-30.7 13.9-30.7 30.9v0.2q0 0 0 0v18.4c0 2.8 2.3 5.1 5.1 5.1 2.8 0 5.1-2.3 5.1-5.1v-13.8l0.1-4.8c0-11.3 9.2-20.5 20.5-20.6 11.3 0.1 20.5 9.3 20.5 20.6v3.2q0 0 0 0v27.6q0 0 0 0.1c-0.6 10.8-9.5 19.5-20.5 19.5h-0.3c0 0-0.5 0-0.5 0h-0.6c-2.6 0-4.8 2.1-4.8 4.8 0 3 2.4 5.4 5.4 5.4h0.8c17 0 30.8-13.7 30.9-30.7q0 0 0-0.1 0 0 0 0z"/>
		</g>
	</g>
</svg>