<svg width="23" height="23" viewBox="0 0 23 23" fill="none" xmlns="http://www.w3.org/2000/svg">
<g id="Group">
<path id="Vector" d="M11.9113 0.0102539C17.9913 0.0302539 22.9911 5.03014 22.9011 11.1401C22.8111 17.1901 18.051 22.0603 11.761 22.0103C5.64096 21.9603 0.761073 16.9003 0.881073 10.8003C1.00107 4.74029 5.99111 0.0302539 11.9211 0.0102539H11.9113ZM11.9411 21C16.8811 21.1 21.8313 17.1199 21.9113 11.1299C21.9813 5.64988 17.6814 1.04 11.9314 1C6.72137 0.96 1.97131 4.95018 1.87131 10.9302C1.78131 16.6902 6.49113 21.1302 11.9411 20.9902V21Z" fill="black"/>
<path id="Vector_2" d="M12.8617 12.6901C12.8617 13.7701 12.8617 14.8401 12.8617 15.9201C12.8617 16.1801 12.932 16.2604 13.202 16.2604C13.902 16.2604 13.8119 16.1401 13.8319 16.9001C13.8319 17.1701 13.7518 17.2604 13.4818 17.2604C12.4218 17.2504 11.3718 17.2504 10.3118 17.2604C10.0318 17.2604 9.95175 17.1701 9.96175 16.9001C9.98175 16.1501 9.89163 16.2604 10.5916 16.2604C10.8616 16.2604 10.932 16.1801 10.932 15.9201C10.932 14.0901 10.922 12.2601 10.932 10.4201C10.932 10.1301 10.8218 10.0703 10.5618 10.0803C9.89185 10.0803 9.98175 10.1804 9.96175 9.4704C9.95175 9.1704 10.0316 9.07026 10.3416 9.08026C11.0816 9.10026 11.8216 9.09026 12.5516 9.08026C12.8016 9.08026 12.8817 9.16034 12.8817 9.41034C12.8717 10.5103 12.8817 11.6004 12.8817 12.7004L12.8617 12.6901Z" fill="black"/>
<path id="Vector_3" d="M10.4321 5.77002C10.4321 4.94002 11.0618 4.31006 11.8818 4.31006C12.6818 4.31006 13.3418 4.94998 13.3418 5.72998C13.3418 6.53998 12.6921 7.21021 11.8921 7.22021C11.0721 7.22021 10.4219 6.59027 10.4219 5.78027L10.4321 5.77002Z" fill="black"/>
</g>
</svg>
